<?xml version="1.0" encoding="utf-8"?>
<!-- Generator: Adobe Illustrator 19.0.0, SVG Export Plug-In . SVG Version: 6.00 Build 0)  -->
<svg version="1.1" id="Capa_1" xmlns="http://www.w3.org/2000/svg" xmlns:xlink="http://www.w3.org/1999/xlink" x="0px" y="0px"
	 viewBox="-131 141 676 512" style="enable-background:new -131 141 676 512;" xml:space="preserve">
<style type="text/css">
	.st0{fill:#FAC917;}
</style>
<path class="st0" d="M462.6,338.8c-1.1-3.3-3.9-5.7-7.4-6.2l-165.8-24.1l-74.1-150.2c-1.5-3.1-4.7-5.1-8.2-5.1c-3.5,0-6.7,2-8.2,5.1
	l-74.2,150.2l-165.8,24.1c-3.5,0.5-6.3,2.9-7.4,6.2c-1.1,3.3-0.2,7,2.3,9.4l120,116.9L45.4,630.2c-0.6,3.4,0.8,6.9,3.6,9
	c2.8,2.1,6.6,2.3,9.7,0.7l148.3-78l148.3,78c1.3,0.7,2.8,1.1,4.3,1.1c1.9,0,3.8-0.6,5.4-1.8c2.8-2.1,4.2-5.5,3.6-9l-28.3-165.1
	l120-116.9C462.7,345.7,463.6,342.1,462.6,338.8z"/>
</svg>
